<svg width="12" height="12" viewBox="0 0 12 12" fill="none" xmlns="http://www.w3.org/2000/svg">
<path d="M5.36794 1.17856L0.96051 3.00428C0.906201 3.02677 0.859846 3.06496 0.827388 3.11397C0.794929 3.16297 0.777847 3.22056 0.77833 3.27934C0.778814 3.33811 0.796841 3.39541 0.830101 3.44387C0.863362 3.49234 0.910338 3.52976 0.96501 3.55136L5.39044 5.30636C5.77919 5.46066 6.21219 5.46066 6.60094 5.30636L11.0264 3.55136C11.081 3.52976 11.128 3.49234 11.1613 3.44387C11.1945 3.39541 11.2126 3.33811 11.213 3.27934C11.2135 3.22056 11.1964 3.16297 11.164 3.11397C11.1315 3.06496 11.0852 3.02677 11.0309 3.00428L6.62344 1.17856C6.22149 1.01209 5.76988 1.01209 5.36794 1.17856Z" fill="#FEBF10"/>
<path d="M6.38574 6.26527V10.6489C6.38568 10.6971 6.39743 10.7446 6.41998 10.7873C6.44253 10.8299 6.47518 10.8664 6.51508 10.8934C6.55499 10.9205 6.60092 10.9374 6.64886 10.9427C6.69681 10.9479 6.7453 10.9413 6.7901 10.9234L11.7215 9.00962C11.7764 8.98776 11.8236 8.94992 11.8568 8.90098C11.89 8.85205 11.9078 8.79427 11.9079 8.73512V4.35084C11.9078 4.30267 11.896 4.25525 11.8734 4.2127C11.8508 4.17016 11.8181 4.13377 11.7783 4.10671C11.7384 4.07966 11.6926 4.06275 11.6447 4.05745C11.5968 4.05216 11.5483 4.05865 11.5035 4.07634L6.57217 5.99077C6.5171 6.01248 6.46986 6.05029 6.4366 6.09926C6.40335 6.14822 6.38562 6.20608 6.38574 6.26527Z" fill="#48B2E5"/>
<path d="M5.23693 6.49128L3.77314 7.19842L3.62464 7.26978L0.538917 8.74835C0.34606 8.84285 0.0927734 8.70013 0.0927734 8.48285V4.36856C0.0941401 4.33085 0.103232 4.29382 0.119487 4.25976C0.135742 4.2257 0.158813 4.19535 0.187274 4.17056C0.209467 4.14861 0.234556 4.12979 0.261845 4.11464C0.302325 4.09154 0.347424 4.07772 0.393891 4.07416C0.440359 4.0706 0.487037 4.0774 0.53056 4.09406L5.21571 5.94999C5.26919 5.97073 5.31548 6.00658 5.34895 6.05316C5.38241 6.09974 5.40161 6.15505 5.4042 6.21235C5.40679 6.26965 5.39266 6.32646 5.36353 6.37587C5.3344 6.42528 5.29153 6.46516 5.24014 6.49063" fill="#ED334A"/>
<path d="M5.23644 6.49161L3.77266 7.19876L0.183594 4.17154C0.205787 4.14959 0.230876 4.13077 0.258165 4.11561C0.298644 4.09252 0.343743 4.0787 0.390211 4.07514C0.436678 4.07158 0.483356 4.07838 0.526879 4.09504L5.21201 5.95097C5.26549 5.97171 5.31178 6.00755 5.34524 6.05414C5.37871 6.10072 5.39791 6.15603 5.4005 6.21333C5.40308 6.27063 5.38895 6.32744 5.35983 6.37685C5.3307 6.42626 5.28783 6.46613 5.23644 6.49161Z" fill="#010101" fill-opacity="0.25"/>
</svg>
